<svg width="690" height="350" viewBox="0 0 690 350" fill="none" xmlns="http://www.w3.org/2000/svg">
<path d="M238.62 108.514H109.446C108.1 108.514 107 107.43 107 106.105V14.4092C107 13.0836 108.1 12 109.446 12H238.62C239.966 12 241.066 13.0836 241.066 14.4092V106.105C241.066 107.441 239.966 108.514 238.62 108.514Z" fill="#222222"/>
<path opacity="0.6" d="M241.066 14.4092V106.105C241.066 107.441 239.966 108.514 238.62 108.514H109.446C108.089 108.514 107 107.441 107 106.105V14.4092C107 13.0836 108.089 12 109.446 12H238.62C239.966 12 241.066 13.0836 241.066 14.4092Z" fill="#5A72EB"/>
<path d="M238.524 21.8203H109.531V105.815H238.524V21.8203Z" fill="white"/>
<path d="M118.809 32.2895C118.948 32.3947 119.119 32.4473 119.279 32.4473C119.525 32.4473 119.771 32.3315 119.92 32.1211C120.187 31.774 120.102 31.2795 119.749 31.0165L117.389 29.3017L119.749 27.5868C120.102 27.3238 120.176 26.8294 119.92 26.4822C119.653 26.135 119.151 26.0614 118.799 26.3139L115.563 28.6704C115.36 28.8177 115.242 29.0597 115.242 29.3017C115.242 29.5542 115.36 29.7856 115.573 29.9329L118.809 32.2895Z" fill="#5A72EB"/>
<path d="M129.648 29.2906L127.287 31.0054C126.935 31.2684 126.86 31.7629 127.117 32.11C127.277 32.3205 127.512 32.4257 127.757 32.4257C127.928 32.4257 128.088 32.3731 128.238 32.2679L131.474 29.9113C131.677 29.764 131.794 29.522 131.794 29.2801C131.794 29.0276 131.677 28.7961 131.463 28.6488L128.227 26.3028C127.875 26.0398 127.373 26.1239 127.106 26.4711C126.839 26.8183 126.924 27.3128 127.277 27.5758L129.648 29.2906Z" fill="#5A72EB"/>
<path d="M122.421 32.3907C122.506 32.4222 122.602 32.4328 122.688 32.4328C123.019 32.4328 123.328 32.2329 123.446 31.9067L125.133 27.2041C125.283 26.7938 125.059 26.3415 124.642 26.1942C124.225 26.0469 123.766 26.2678 123.617 26.6781L121.929 31.3807C121.78 31.791 122.004 32.2434 122.421 32.3907Z" fill="#5A72EB"/>
<path opacity="0.5" d="M135.767 32.6978H139.997C140.584 32.6978 141.065 32.2244 141.065 31.6458C141.065 31.0672 140.584 30.5938 139.997 30.5938H135.767C135.18 30.5938 134.699 31.0672 134.699 31.6458C134.699 32.2244 135.18 32.6978 135.767 32.6978Z" fill="#5A72EB"/>
<path opacity="0.5" d="M190.572 41.0494H196.275C196.862 41.0494 197.343 40.576 197.343 39.9973C197.343 39.4187 196.862 38.9453 196.275 38.9453H190.572C189.985 38.9453 189.504 39.4187 189.504 39.9973C189.504 40.576 189.985 41.0494 190.572 41.0494Z" fill="#5A72EB"/>
<path d="M128.754 39.9973C128.754 40.576 129.235 41.0494 129.822 41.0494H183.222C183.809 41.0494 184.29 40.576 184.29 39.9973C184.29 39.4187 183.809 38.9453 183.222 38.9453H129.822C129.235 38.9453 128.754 39.4187 128.754 39.9973Z" fill="#5A72EB"/>
<path opacity="0.5" d="M115.306 41.0494H123.476C124.064 41.0494 124.544 40.576 124.544 39.9973C124.544 39.4187 124.064 38.9453 123.476 38.9453H115.306C114.719 38.9453 114.238 39.4187 114.238 39.9973C114.238 40.576 114.719 41.0494 115.306 41.0494Z" fill="#5A72EB"/>
<path d="M170.64 47.6978C171.228 47.6978 171.708 47.2244 171.708 46.6458C171.708 46.0672 171.228 45.5938 170.64 45.5938H149.377C148.789 45.5938 148.309 46.0672 148.309 46.6458C148.309 47.2244 148.789 47.6978 149.377 47.6978H170.64Z" fill="#5A72EB"/>
<path d="M129.822 47.6978H144.913C145.5 47.6978 145.981 47.2244 145.981 46.6458C145.981 46.0672 145.5 45.5938 144.913 45.5938H129.822C129.235 45.5938 128.754 46.0672 128.754 46.6458C128.754 47.2244 129.235 47.6978 129.822 47.6978Z" fill="#5A72EB"/>
<path opacity="0.5" d="M115.306 47.6978H123.338C123.925 47.6978 124.406 47.2244 124.406 46.6458C124.406 46.0672 123.925 45.5938 123.338 45.5938H115.306C114.719 45.5938 114.238 46.0672 114.238 46.6458C114.238 47.2244 114.719 47.6978 115.306 47.6978Z" fill="#5A72EB"/>
<path d="M161.03 53.3099C161.03 52.7312 160.55 52.2578 159.962 52.2578H129.716C129.129 52.2578 128.648 52.7312 128.648 53.3099C128.648 53.8885 129.129 54.3619 129.716 54.3619H159.962C160.56 54.3619 161.03 53.8885 161.03 53.3099Z" fill="#5A72EB"/>
<path opacity="0.5" d="M115.306 54.3619H123.423C124.01 54.3619 124.491 53.8885 124.491 53.3099C124.491 52.7312 124.01 52.2578 123.423 52.2578H115.306C114.719 52.2578 114.238 52.7312 114.238 53.3099C114.238 53.8885 114.719 54.3619 115.306 54.3619Z" fill="#5A72EB"/>
<path d="M150.377 61.026H181.317C181.904 61.026 182.385 60.5525 182.385 59.9739C182.385 59.3953 181.904 58.9219 181.317 58.9219H150.377C149.789 58.9219 149.309 59.3953 149.309 59.9739C149.309 60.5525 149.789 61.026 150.377 61.026Z" fill="#5A72EB"/>
<path d="M129.736 58.9219C129.149 58.9219 128.668 59.3953 128.668 59.9739C128.668 60.5525 129.149 61.026 129.736 61.026H143.812C144.4 61.026 144.88 60.5525 144.88 59.9739C144.88 59.3953 144.4 58.9219 143.812 58.9219H129.736Z" fill="#5A72EB"/>
<path opacity="0.5" d="M115.306 61.026H123.327C123.914 61.026 124.395 60.5525 124.395 59.9739C124.395 59.3953 123.914 58.9219 123.327 58.9219H115.306C114.719 58.9219 114.238 59.3953 114.238 59.9739C114.238 60.5525 114.719 61.026 115.306 61.026Z" fill="#5A72EB"/>
<path d="M141.803 65.5703H134.818C134.231 65.5703 133.75 66.0437 133.75 66.6224C133.75 67.201 134.231 67.6744 134.818 67.6744H141.803C142.39 67.6744 142.871 67.201 142.871 66.6224C142.871 66.0437 142.401 65.5703 141.803 65.5703Z" fill="#5A72EB"/>
<path d="M129.852 65.5703H115.306C114.719 65.5703 114.238 66.0437 114.238 66.6224C114.238 67.201 114.719 67.6744 115.306 67.6744H129.852C130.44 67.6744 130.92 67.201 130.92 66.6224C130.92 66.0437 130.44 65.5703 129.852 65.5703Z" fill="#5A72EB"/>
<path d="M175.637 73.2864C175.637 73.865 176.117 74.3385 176.705 74.3385H233.65C234.238 74.3385 234.718 73.865 234.718 73.2864C234.718 72.7078 234.238 72.2344 233.65 72.2344H176.705C176.117 72.2344 175.637 72.7078 175.637 73.2864Z" fill="#5A72EB"/>
<path opacity="0.5" d="M160.162 72.2344C159.574 72.2344 159.094 72.7078 159.094 73.2864C159.094 73.865 159.574 74.3385 160.162 74.3385H170.938C171.525 74.3385 172.006 73.865 172.006 73.2864C172.006 72.7078 171.525 72.2344 170.938 72.2344H160.162Z" fill="#5A72EB"/>
<path opacity="0.5" d="M233.652 78.8906H219.779C219.192 78.8906 218.711 79.364 218.711 79.9427C218.711 80.5213 219.192 80.9947 219.779 80.9947H233.652C234.24 80.9947 234.72 80.5213 234.72 79.9427C234.72 79.364 234.25 78.8906 233.652 78.8906Z" fill="#5A72EB"/>
<path d="M213.953 79.9427C213.953 79.364 213.473 78.8906 212.885 78.8906H154.818C154.231 78.8906 153.75 79.364 153.75 79.9427C153.75 80.5213 154.231 80.9947 154.818 80.9947H212.885C213.473 80.9947 213.953 80.5213 213.953 79.9427Z" fill="#5A72EB"/>
<path d="M233.649 85.5547H208.498C207.91 85.5547 207.43 86.0281 207.43 86.6067C207.43 87.1853 207.91 87.6588 208.498 87.6588H233.649C234.236 87.6588 234.717 87.1853 234.717 86.6067C234.717 86.0281 234.247 85.5547 233.649 85.5547Z" fill="#5A72EB"/>
<path opacity="0.5" d="M196.474 85.5547C195.887 85.5547 195.406 86.0281 195.406 86.6067C195.406 87.1853 195.887 87.6588 196.474 87.6588H202.711C203.299 87.6588 203.779 87.1853 203.779 86.6067C203.779 86.0281 203.299 85.5547 202.711 85.5547H196.474Z" fill="#5A72EB"/>
<path d="M233.651 92.2109H183.658C183.07 92.2109 182.59 92.6844 182.59 93.263C182.59 93.8416 183.07 94.315 183.658 94.315H233.651C234.238 94.315 234.719 93.8416 234.719 93.263C234.719 92.6844 234.249 92.2109 233.651 92.2109Z" fill="#5A72EB"/>
<path d="M161.597 92.2109H144.146C143.559 92.2109 143.078 92.6844 143.078 93.263C143.078 93.8416 143.559 94.315 144.146 94.315H161.597C162.185 94.315 162.665 93.8416 162.665 93.263C162.665 92.6844 162.185 92.2109 161.597 92.2109Z" fill="#5A72EB"/>
<path d="M228.62 247.514H99.4457C98.1 247.514 97 246.43 97 245.105V153.409C97 152.084 98.1 151 99.4457 151H228.62C229.966 151 231.066 152.084 231.066 153.409V245.105C231.066 246.441 229.966 247.514 228.62 247.514Z" fill="#222222"/>
<path opacity="0.6" d="M231.066 153.409V245.105C231.066 246.441 229.966 247.514 228.62 247.514H99.4457C98.0894 247.514 97 246.441 97 245.105V153.409C97 152.084 98.0894 151 99.4457 151H228.62C229.966 151 231.066 152.084 231.066 153.409Z" fill="#EBEBEB"/>
<path d="M228.524 160.82H99.5312V244.815H228.524V160.82Z" fill="#CBCECF"/>
<path d="M108.809 171.289C108.948 171.395 109.119 171.447 109.279 171.447C109.525 171.447 109.771 171.332 109.92 171.121C110.187 170.774 110.102 170.279 109.749 170.016L107.389 168.302L109.749 166.587C110.102 166.324 110.176 165.829 109.92 165.482C109.653 165.135 109.151 165.061 108.799 165.314L105.563 167.67C105.36 167.818 105.242 168.06 105.242 168.302C105.242 168.554 105.36 168.786 105.573 168.933L108.809 171.289Z" fill="#EBEBEB"/>
<path d="M119.648 168.291L117.287 170.005C116.935 170.268 116.86 170.763 117.117 171.11C117.277 171.32 117.512 171.426 117.757 171.426C117.928 171.426 118.088 171.373 118.238 171.268L121.474 168.911C121.677 168.764 121.794 168.522 121.794 168.28C121.794 168.028 121.677 167.796 121.463 167.649L118.227 165.303C117.875 165.04 117.373 165.124 117.106 165.471C116.839 165.818 116.924 166.313 117.277 166.576L119.648 168.291Z" fill="#EBEBEB"/>
<path d="M112.421 171.391C112.506 171.422 112.602 171.433 112.688 171.433C113.019 171.433 113.328 171.233 113.446 170.907L115.133 166.204C115.283 165.794 115.059 165.341 114.642 165.194C114.225 165.047 113.766 165.268 113.617 165.678L111.929 170.381C111.78 170.791 112.004 171.243 112.421 171.391Z" fill="#EBEBEB"/>
<path opacity="0.5" d="M125.767 171.698H129.997C130.584 171.698 131.065 171.224 131.065 170.646C131.065 170.067 130.584 169.594 129.997 169.594H125.767C125.18 169.594 124.699 170.067 124.699 170.646C124.699 171.224 125.18 171.698 125.767 171.698Z" fill="#EBEBEB"/>
<path opacity="0.5" d="M180.572 180.049H186.275C186.862 180.049 187.343 179.576 187.343 178.997C187.343 178.419 186.862 177.945 186.275 177.945H180.572C179.985 177.945 179.504 178.419 179.504 178.997C179.504 179.576 179.985 180.049 180.572 180.049Z" fill="#EBEBEB"/>
<path d="M118.754 178.997C118.754 179.576 119.235 180.049 119.822 180.049H173.222C173.809 180.049 174.29 179.576 174.29 178.997C174.29 178.419 173.809 177.945 173.222 177.945H119.822C119.235 177.945 118.754 178.419 118.754 178.997Z" fill="#EBEBEB"/>
<path opacity="0.5" d="M105.306 180.049H113.476C114.064 180.049 114.544 179.576 114.544 178.997C114.544 178.419 114.064 177.945 113.476 177.945H105.306C104.719 177.945 104.238 178.419 104.238 178.997C104.238 179.576 104.719 180.049 105.306 180.049Z" fill="#EBEBEB"/>
<path d="M160.64 186.698C161.228 186.698 161.708 186.224 161.708 185.646C161.708 185.067 161.228 184.594 160.64 184.594H139.377C138.789 184.594 138.309 185.067 138.309 185.646C138.309 186.224 138.789 186.698 139.377 186.698H160.64Z" fill="#EBEBEB"/>
<path d="M119.822 186.698H134.913C135.5 186.698 135.981 186.224 135.981 185.646C135.981 185.067 135.5 184.594 134.913 184.594H119.822C119.235 184.594 118.754 185.067 118.754 185.646C118.754 186.224 119.235 186.698 119.822 186.698Z" fill="#EBEBEB"/>
<path opacity="0.5" d="M105.306 186.698H113.338C113.925 186.698 114.406 186.224 114.406 185.646C114.406 185.067 113.925 184.594 113.338 184.594H105.306C104.719 184.594 104.238 185.067 104.238 185.646C104.238 186.224 104.719 186.698 105.306 186.698Z" fill="#EBEBEB"/>
<path d="M151.03 192.31C151.03 191.731 150.55 191.258 149.962 191.258H119.716C119.129 191.258 118.648 191.731 118.648 192.31C118.648 192.888 119.129 193.362 119.716 193.362H149.962C150.56 193.362 151.03 192.888 151.03 192.31Z" fill="#EBEBEB"/>
<path opacity="0.5" d="M105.306 193.362H113.423C114.01 193.362 114.491 192.888 114.491 192.31C114.491 191.731 114.01 191.258 113.423 191.258H105.306C104.719 191.258 104.238 191.731 104.238 192.31C104.238 192.888 104.719 193.362 105.306 193.362Z" fill="#EBEBEB"/>
<path d="M140.377 200.026H171.317C171.904 200.026 172.385 199.553 172.385 198.974C172.385 198.395 171.904 197.922 171.317 197.922H140.377C139.789 197.922 139.309 198.395 139.309 198.974C139.309 199.553 139.789 200.026 140.377 200.026Z" fill="#EBEBEB"/>
<path d="M119.736 197.922C119.149 197.922 118.668 198.395 118.668 198.974C118.668 199.553 119.149 200.026 119.736 200.026H133.812C134.4 200.026 134.88 199.553 134.88 198.974C134.88 198.395 134.4 197.922 133.812 197.922H119.736Z" fill="#EBEBEB"/>
<path opacity="0.5" d="M105.306 200.026H113.327C113.914 200.026 114.395 199.553 114.395 198.974C114.395 198.395 113.914 197.922 113.327 197.922H105.306C104.719 197.922 104.238 198.395 104.238 198.974C104.238 199.553 104.719 200.026 105.306 200.026Z" fill="#EBEBEB"/>
<path d="M131.803 204.57H124.818C124.231 204.57 123.75 205.044 123.75 205.622C123.75 206.201 124.231 206.674 124.818 206.674H131.803C132.39 206.674 132.871 206.201 132.871 205.622C132.871 205.044 132.401 204.57 131.803 204.57Z" fill="#EBEBEB"/>
<path d="M119.852 204.57H105.306C104.719 204.57 104.238 205.044 104.238 205.622C104.238 206.201 104.719 206.674 105.306 206.674H119.852C120.44 206.674 120.92 206.201 120.92 205.622C120.92 205.044 120.44 204.57 119.852 204.57Z" fill="#EBEBEB"/>
<path d="M165.637 212.286C165.637 212.865 166.117 213.338 166.705 213.338H223.65C224.238 213.338 224.718 212.865 224.718 212.286C224.718 211.708 224.238 211.234 223.65 211.234H166.705C166.117 211.234 165.637 211.708 165.637 212.286Z" fill="#EBEBEB"/>
<path opacity="0.5" d="M150.162 211.234C149.574 211.234 149.094 211.708 149.094 212.286C149.094 212.865 149.574 213.338 150.162 213.338H160.938C161.525 213.338 162.006 212.865 162.006 212.286C162.006 211.708 161.525 211.234 160.938 211.234H150.162Z" fill="#EBEBEB"/>
<path opacity="0.5" d="M223.652 217.891H209.779C209.192 217.891 208.711 218.364 208.711 218.943C208.711 219.521 209.192 219.995 209.779 219.995H223.652C224.24 219.995 224.72 219.521 224.72 218.943C224.72 218.364 224.25 217.891 223.652 217.891Z" fill="#EBEBEB"/>
<path d="M203.953 218.943C203.953 218.364 203.473 217.891 202.885 217.891H144.818C144.231 217.891 143.75 218.364 143.75 218.943C143.75 219.521 144.231 219.995 144.818 219.995H202.885C203.473 219.995 203.953 219.521 203.953 218.943Z" fill="#EBEBEB"/>
<path d="M223.649 224.555H198.498C197.91 224.555 197.43 225.028 197.43 225.607C197.43 226.185 197.91 226.659 198.498 226.659H223.649C224.236 226.659 224.717 226.185 224.717 225.607C224.717 225.028 224.247 224.555 223.649 224.555Z" fill="#EBEBEB"/>
<path opacity="0.5" d="M186.474 224.555C185.887 224.555 185.406 225.028 185.406 225.607C185.406 226.185 185.887 226.659 186.474 226.659H192.711C193.299 226.659 193.779 226.185 193.779 225.607C193.779 225.028 193.299 224.555 192.711 224.555H186.474Z" fill="#EBEBEB"/>
<path d="M223.651 231.211H173.658C173.07 231.211 172.59 231.684 172.59 232.263C172.59 232.842 173.07 233.315 173.658 233.315H223.651C224.238 233.315 224.719 232.842 224.719 232.263C224.719 231.684 224.249 231.211 223.651 231.211Z" fill="#EBEBEB"/>
<path d="M151.597 231.211H134.146C133.559 231.211 133.078 231.684 133.078 232.263C133.078 232.842 133.559 233.315 134.146 233.315H151.597C152.185 233.315 152.665 232.842 152.665 232.263C152.665 231.684 152.185 231.211 151.597 231.211Z" fill="#EBEBEB"/>
<path d="M578.555 325L551.937 322.088V280.406H541.387V322.078L514.662 325C512.01 325.291 509.987 327.772 509.987 330.748V335.202H545.636H547.591H583.23V330.748C583.23 327.783 581.207 325.291 578.555 325Z" fill="#5A72EB"/>
<path opacity="0.2" d="M578.555 325L551.937 322.088V280.406H541.387V322.078L514.662 325C512.01 325.291 509.987 327.772 509.987 330.748V335.202H545.636H547.591H583.23V330.748C583.23 327.783 581.207 325.291 578.555 325Z" fill="white"/>
<path d="M512.79 348.41C508.979 348.41 505.889 344.967 505.889 340.721C505.889 336.474 508.979 333.031 512.79 333.031C516.602 333.031 519.691 336.474 519.691 340.721C519.691 344.967 516.602 348.41 512.79 348.41Z" fill="#5A72EB"/>
<path d="M580.411 348.41C576.6 348.41 573.51 344.967 573.51 340.721C573.51 336.474 576.6 333.031 580.411 333.031C584.223 333.031 587.312 336.474 587.312 340.721C587.312 344.967 584.223 348.41 580.411 348.41Z" fill="#5A72EB"/>
<path d="M549.748 289.362H543.563C541.357 289.362 539.566 287.367 539.566 284.908V252.242H553.746V284.908C553.756 287.367 551.965 289.362 549.748 289.362Z" fill="#5A72EB"/>
<path opacity="0.3" d="M549.748 289.362H543.563C541.357 289.362 539.566 287.367 539.566 284.908V252.242H553.746V284.908C553.756 287.367 551.965 289.362 549.748 289.362Z" fill="white"/>
<path d="M571.885 187.078C571.885 187.078 573.898 242.661 560.008 252.238H575.863C575.863 252.238 588.146 233.301 584.681 187.078H571.885Z" fill="#5A72EB"/>
<path opacity="0.3" d="M571.885 187.078C571.885 187.078 573.898 242.661 560.008 252.238H575.863C575.863 252.238 588.146 233.301 584.681 187.078H571.885Z" fill="white"/>
<path d="M515.03 244.461H576.426C579.097 244.461 581.266 246.877 581.266 249.853V256.496H510.2V249.853C510.19 246.877 512.358 244.461 515.03 244.461Z" fill="#5A72EB"/>
<path d="M509.175 250.484H582.273C583.348 250.484 584.219 251.455 584.219 252.652V254.334C584.219 255.532 583.348 256.502 582.273 256.502H509.175C508.1 256.502 507.229 255.532 507.229 254.334V252.652C507.22 251.455 508.091 250.484 509.175 250.484Z" fill="#5A72EB"/>
<path opacity="0.6" d="M509.175 250.484H582.273C583.348 250.484 584.219 251.455 584.219 252.652V254.334C584.219 255.532 583.348 256.502 582.273 256.502H509.175C508.1 256.502 507.229 255.532 507.229 254.334V252.652C507.22 251.455 508.091 250.484 509.175 250.484Z" fill="white"/>
<path d="M587.923 198.37H563.802C556.01 198.37 549.689 191.328 549.689 182.646V173.005C549.689 164.324 556.01 157.281 563.802 157.281H587.923C595.715 157.281 602.035 164.324 602.035 173.005V182.646C602.035 191.328 595.715 198.37 587.923 198.37Z" fill="#5A72EB"/>
<path d="M507.645 341.437L499.93 340.262L498.865 319.836L506.56 321.022L507.645 341.437Z" fill="#EBB376"/>
<path opacity="0.2" d="M506.56 321.027L498.865 319.852L499.475 331.52L507.16 332.275L506.56 321.027Z" fill="black"/>
<path d="M507.335 221.39L509.212 208.254L552.44 205.375C552.44 205.375 557.038 232.703 553.505 239.982C547.204 252.978 513.22 246.421 503.279 247.693C509.222 274.773 508.641 327.693 508.641 327.693L494.442 328.901C494.442 328.901 483.514 271.872 481.307 244.782C479.816 226.502 493.416 226.955 507.335 221.39Z" fill="#222222"/>
<path d="M510.305 328.448L493.24 329.699L491.778 321.557L510.527 320.586L510.305 328.448Z" fill="#222222"/>
<path d="M489.855 333.823L482.093 334.46L477.234 314.735L484.987 314.109L489.855 333.823Z" fill="#EBB376"/>
<path d="M481.016 334.842C481.006 334.863 481.006 334.895 480.997 334.906C480.977 334.917 480.958 334.917 480.929 334.917C480.329 335.295 479.69 335.596 479.032 335.823C478.548 336.039 478.006 336.049 477.522 335.844C477.193 335.64 477.009 335.241 477.038 334.831C477.018 334.572 477.115 334.313 477.299 334.151C477.744 333.785 478.664 333.892 479.477 334.087C478.887 333.547 478.364 332.868 478.335 332.329C478.315 331.973 478.499 331.649 478.809 331.541C479.07 331.423 479.332 331.434 479.593 331.585C480.532 332.156 480.9 334.583 480.929 334.712H480.793L480.929 334.723C480.929 334.734 481.055 334.734 481.055 334.744C481.035 334.777 481.026 334.809 481.016 334.842ZM480.435 334.356C480.503 334.378 480.551 334.399 480.609 334.421C480.426 333.623 480.038 332.318 479.467 331.984C479.341 331.897 479.187 331.876 479.051 331.919L478.964 331.951C478.722 332.059 478.693 332.221 478.703 332.34C478.78 332.911 479.671 333.882 480.435 334.356ZM480.406 334.798C479.38 334.453 477.957 334.141 477.522 334.507C477.425 334.583 477.377 334.712 477.396 334.842C477.386 335.1 477.502 335.348 477.696 335.499C478.141 335.769 479.138 335.51 480.406 334.798Z" fill="#222222"/>
<path opacity="0.2" d="M484.985 314.109L477.232 314.746L480.01 326.015L487.676 324.969L484.985 314.109Z" fill="black"/>
<path d="M474.601 324.628L488.268 320.152C488.268 320.152 480.108 268.84 471.832 251.045C472.452 250.819 473.274 250.528 474.291 250.193C476.12 249.578 478.55 248.813 481.405 247.928C501.267 241.792 541.523 230.285 541.523 230.285L523.133 211.164C523.133 211.164 449.88 223.609 448.36 245.114C447.634 255.456 474.601 324.628 474.601 324.628Z" fill="#222222"/>
<path d="M490.027 320.475L473.572 325.662L470.62 318.037L488.779 312.742L490.027 320.475Z" fill="#222222"/>
<path opacity="0.2" d="M474.294 250.186C476.123 249.571 478.553 248.805 481.408 247.921C480.837 242.701 480.827 236.716 483.083 233.664C487.564 227.582 499.092 224.012 505.655 222.718C511.143 221.639 529.582 219.493 529.582 219.493C529.582 219.493 505.655 216.937 481.195 224.885C469.106 228.822 471.458 241.99 474.294 250.186Z" fill="black"/>
<path opacity="0.2" d="M510.305 328.448L493.24 329.699L491.778 321.557L510.527 320.586L510.305 328.448Z" fill="white"/>
<path opacity="0.2" d="M490.027 320.475L473.572 325.662L470.62 318.037L488.779 312.742L490.027 320.475Z" fill="white"/>
<path d="M481.321 333.564L489.733 330.954C490.023 330.846 490.333 331.019 490.43 331.342V331.353L492.695 338.643C492.898 339.452 492.482 340.293 491.756 340.52C488.813 341.383 487.361 341.62 483.654 342.741C481.379 343.442 476.946 345.06 473.713 345.47C470.471 345.88 470.19 342.299 471.536 341.803C474.71 340.617 478.505 336.939 480.16 334.427C480.45 334.017 480.857 333.715 481.321 333.564Z" fill="#263238"/>
<path d="M499.164 340.276C499.164 340.287 499 340.287 499 340.298C498.99 340.33 498.825 340.363 498.806 340.384C498.796 340.406 498.796 340.427 498.777 340.449C498.758 340.46 498.728 340.449 498.709 340.438C498.051 340.665 497.373 340.816 496.686 340.88C496.173 340.977 495.65 340.869 495.205 340.557C494.925 340.276 494.818 339.845 494.924 339.446C494.954 339.187 495.099 338.961 495.312 338.842C495.815 338.583 496.706 338.907 497.47 339.284C496.986 338.615 496.638 337.839 496.706 337.3C496.754 336.944 497.044 336.674 497.364 336.642C497.644 336.588 498.012 336.663 498.225 336.868C499.038 337.645 499.164 340.093 499.164 340.244C499.164 340.255 499.164 340.265 499.164 340.276C499.164 340.265 499.164 340.265 499.164 340.276C499.164 340.265 499.164 340.276 499.164 340.276ZM498.322 339.769C498.38 339.802 498.428 339.834 498.477 339.866C498.448 339.047 498.312 337.677 497.819 337.213C497.712 337.106 497.567 337.041 497.422 337.062L497.335 337.073C497.083 337.127 497.015 337.267 497.006 337.386C496.977 337.979 497.664 339.133 498.322 339.769ZM498.215 340.201C497.277 339.629 495.951 338.993 495.447 339.252C495.341 339.306 495.273 339.424 495.263 339.543C495.205 339.791 495.273 340.061 495.438 340.255C495.825 340.621 496.841 340.6 498.215 340.201Z" fill="#222222"/>
<path d="M499.352 339.232L508.063 338.628C508.363 338.596 508.634 338.833 508.673 339.178V339.189L509.524 346.846C509.573 347.687 509.002 348.409 508.256 348.463C505.217 348.614 503.756 348.528 499.923 348.755C497.571 348.916 492.934 349.466 489.682 349.121C486.439 348.776 486.836 345.206 488.24 345.034C491.569 344.613 495.973 341.885 498.045 339.825C498.413 339.469 498.868 339.253 499.352 339.232Z" fill="#263238"/>
<path d="M489.711 172.367C489.711 172.367 487.272 187.087 482.877 189.934C478.483 192.782 448.09 172.528 448.09 172.528L450.635 166.812C450.635 166.812 476.082 174.459 476.324 174.513C476.566 174.567 477.292 168.02 477.292 168.02L489.711 172.367Z" fill="#263238"/>
<path d="M480.226 149.203C478.222 151.964 475.338 172.368 475.338 172.368L490.263 176.24L493.496 165.898L480.226 149.203Z" fill="#00B47F"/>
<path d="M556.719 222.362L506.628 213.077C506.628 213.077 503.492 179.925 480.233 149.211C480.233 149.211 488.305 129.54 517.053 132.258C545.8 134.975 556.719 222.362 556.719 222.362Z" fill="#00B47F"/>
<path d="M517.728 160.469C517.728 160.469 518.232 175.794 516.702 176.678C515.173 177.562 486.241 165.829 481.653 164.977C477.065 164.125 466.544 168.6 466.544 168.6L465.586 175.599C465.586 175.599 474.955 175.395 480.231 172.526C480.231 172.526 514.031 195.044 521.3 193.771C528.579 192.488 531.066 161.989 531.066 161.989L517.728 160.469Z" fill="#EBB376"/>
<path d="M517.729 165.898C517.729 165.898 517.622 174.925 515.938 175.604C514.254 176.284 489.223 166.47 489.223 166.47L485.264 176.683C485.264 176.683 516.896 199.427 523.023 193.83C529.15 188.233 530.68 168.185 530.68 168.185L517.729 165.898Z" fill="#00B47F"/>
<path d="M522.258 135.695C513.265 134.648 516.518 170.129 516.518 170.129L531.646 172.534C531.637 172.524 538.141 137.539 522.258 135.695Z" fill="#00B47F"/>
<path d="M508.01 133.127C508.01 133.127 508.31 148.711 499.735 150.307C491.149 151.903 490.259 139.199 490.259 139.199C490.259 139.199 496.027 132.275 508.01 133.127Z" fill="#263238"/>
<path d="M490 142.188C491.686 141.147 493.69 142.188 493.69 142.188C493.69 142.188 494.42 147.634 498.855 147.982C499.391 148.025 499.982 147.992 500.627 147.873C506.639 146.723 505.979 134.236 505.979 134.236C503.485 134.497 501.372 133.477 499.718 132.131C499.718 132.131 499.718 132.132 499.718 132.121C497.084 129.983 495.616 127 495.616 127L490 142.188Z" fill="#EBB376"/>
<path opacity="0.2" d="M486.455 141.755C488.555 140.719 491.052 141.755 491.052 141.755C491.052 141.755 491.962 147.168 497.489 147.513C499.415 142.197 499.164 136.103 498.564 131.757C498.564 131.757 498.564 131.757 498.564 131.747C495.282 129.622 493.453 126.656 493.453 126.656L486.455 141.755Z" fill="black"/>
<path d="M490.101 111.65C493.44 114.173 491.921 118.444 484.371 125.141C481.302 120.709 480.799 112.103 483.238 109.946C485.668 107.778 487.197 109.461 490.101 111.65Z" fill="#263238"/>
<path d="M504.455 118.567C504.097 127.659 504.291 132.986 500.254 137.731C494.176 144.86 484.051 140.891 481.97 131.865C480.112 123.755 481.002 110.253 488.92 106.489C494.563 103.771 501.116 106.672 503.555 112.959C504.242 114.728 504.552 116.648 504.455 118.567Z" fill="#EBB376"/>
<path d="M492.328 121.303C492.338 122.037 491.989 122.651 491.563 122.651C491.128 122.662 490.779 122.069 490.77 121.336C490.76 120.602 491.099 119.998 491.525 119.977C491.95 119.966 492.27 120.581 492.328 121.303Z" fill="#263238"/>
<path d="M484.785 121.459C484.795 122.193 484.446 122.808 484.02 122.808C483.585 122.818 483.227 122.236 483.207 121.481C483.198 120.737 483.546 120.133 483.972 120.133C484.407 120.122 484.775 120.715 484.785 121.459Z" fill="#263238"/>
<path d="M487.253 121.75C486.498 124.026 485.462 126.172 484.175 128.134C485.394 129.331 487.359 128.728 487.359 128.728L487.253 121.75Z" fill="#D58745"/>
<path d="M481.402 116.574C481.479 116.714 481.615 116.811 481.769 116.801C482.757 116.703 483.725 117.146 484.373 117.976C484.499 118.17 484.751 118.213 484.925 118.062C485.099 117.922 485.138 117.653 485.012 117.458C484.199 116.391 482.979 115.819 481.731 115.927C481.518 115.938 481.353 116.143 481.363 116.38C481.363 116.38 481.363 116.38 481.363 116.391C481.363 116.455 481.373 116.52 481.402 116.574Z" fill="#263238"/>
<path d="M489.161 118.208C489.306 118.262 489.461 118.219 489.568 118.1C490.245 117.302 491.233 116.903 492.22 117.054C492.433 117.098 492.636 116.947 492.684 116.72C492.723 116.494 492.597 116.256 492.394 116.202C491.145 115.998 489.897 116.483 489.026 117.497C488.871 117.658 488.871 117.939 489.016 118.1C489.064 118.154 489.113 118.187 489.161 118.208Z" fill="#263238"/>
<path d="M501.088 110.599C497.303 112.13 497.835 116.692 503.691 125.234C507.641 121.772 510.031 113.565 508.134 110.815C506.227 108.065 504.398 109.272 501.088 110.599Z" fill="#263238"/>
<path d="M508.442 125.776C507.91 127.987 506.613 129.874 504.832 131.017C502.46 132.505 500.631 130.316 500.747 127.458C500.854 124.87 502.209 120.988 504.842 120.675C507.484 120.351 509.091 123.058 508.442 125.776Z" fill="#EBB376"/>
<path d="M493.48 130.234C493.48 130.234 492.067 133.211 488.118 133.071" stroke="#263238" stroke-width="0.5263" stroke-miterlimit="10" stroke-linecap="round" stroke-linejoin="round"/>
<path d="M500.215 113.744C500.215 113.744 497.002 113.938 495.521 116.203C495.521 116.203 494.301 114.715 494.717 112.04C494.717 112.04 490.826 112.569 489.103 115.556C489.103 115.556 488.242 113.636 488.532 112.04C488.532 112.04 487.235 113.744 487.361 115.556C487.361 115.556 484.399 113.464 484.786 111.501C484.786 111.501 483.702 112.86 483.209 114.909C483.209 114.909 481.263 114.165 481.689 110.326C481.689 110.326 480.392 111.954 480.305 113.108C480.305 113.108 477.769 105.095 487.361 100.62C496.953 96.144 507.968 101.45 507.775 110.336C507.581 119.234 500.215 113.744 500.215 113.744Z" fill="#263238"/>
<path d="M413.015 172.359V175.217C413.015 176.069 414.331 176.673 415.096 176.673H474.904C475.669 176.673 476.898 176.069 476.898 175.217V172.359H413.015Z" fill="#263238"/>
<path opacity="0.6" d="M413.015 172.359V175.217C413.015 176.069 414.331 176.673 415.096 176.673H474.904C475.669 176.673 476.898 176.069 476.898 175.217V172.359H413.015Z" fill="white"/>
<path opacity="0.2" d="M413.015 172.359V175.217C413.015 176.069 414.332 176.673 415.096 176.673H454.549C455.314 176.673 456.582 176.069 456.582 175.217V172.359H413.015Z" fill="black"/>
<path d="M403.422 137.316L410.546 173.422C410.778 174.609 411.814 175.59 412.859 175.59H451.751C452.786 175.59 453.454 174.361 453.212 173.174L446.098 137.456C445.856 136.281 444.83 135.688 443.784 135.688H404.893C403.847 135.688 403.189 136.14 403.422 137.316Z" fill="#263238"/>
<path opacity="0.6" d="M403.422 137.316L410.546 173.422C410.778 174.609 411.814 175.59 412.859 175.59H451.751C452.786 175.59 453.454 174.361 453.212 173.174L446.098 137.456C445.856 136.281 444.83 135.688 443.784 135.688H404.893C403.847 135.688 403.189 136.14 403.422 137.316Z" fill="white"/>
<path opacity="0.4" d="M403.423 137.316L410.547 173.422C410.779 174.609 411.815 175.59 412.86 175.59H450.435C451.481 175.59 452.139 174.361 451.906 173.174L444.783 137.456C444.55 136.281 443.515 135.688 442.469 135.688H404.894C403.849 135.688 403.19 136.14 403.423 137.316Z" fill="white"/>
<path opacity="0.2" d="M426.302 160.455C424.492 160.455 422.633 158.287 422.159 155.623C421.694 152.949 422.778 150.781 424.598 150.781C424.937 150.781 425.276 150.857 425.605 150.997C426.031 153.078 427.299 154.825 428.692 155.408C428.712 155.483 428.731 155.548 428.741 155.623C429.215 158.287 428.121 160.455 426.302 160.455Z" fill="black"/>
<path d="M449.761 349.983H455.695L466.352 184.711H458.482L449.761 349.983Z" fill="black"/>
<path opacity="0.4" d="M449.761 349.979H455.695L465.829 192.925L466.352 184.977H458.482L458.056 192.925L449.761 349.979Z" fill="white"/>
<path opacity="0.2" d="M458.056 192.526H465.829L466.352 184.977H458.482L458.056 192.526Z" fill="#5A72EB"/>
<path d="M406.247 349.983H412.181L413.148 184.711H405.279L406.247 349.983Z" fill="black"/>
<path opacity="0.5" d="M405.279 184.977L405.434 211.647L406.247 349.979H412.181L412.994 211.647L413.148 184.977H405.279Z" fill="white"/>
<path opacity="0.2" d="M405.279 184.977L405.434 211.938H412.994L413.148 184.977H405.279Z" fill="#5A72EB"/>
<path d="M343.289 349.983H349.222L359.879 184.711H352.01L343.289 349.983Z" fill="black"/>
<path opacity="0.5" d="M343.289 349.979H349.222L359.356 192.925L359.879 184.977H352.01L351.584 192.925L343.289 349.979Z" fill="white"/>
<path opacity="0.2" d="M351.584 192.526H359.356L359.879 184.977H352.01L351.584 192.526Z" fill="#5A72EB"/>
<path d="M517.604 349.983H523.527L514.816 184.711H506.947L517.604 349.983Z" fill="black"/>
<path opacity="0.5" d="M506.947 184.977L507.469 192.925L517.604 349.979H523.527L515.242 192.925L514.816 184.977H506.947Z" fill="white"/>
<path opacity="0.2" d="M514.816 184.977H506.947L507.47 192.526H515.242L514.816 184.977Z" fill="#5A72EB"/>
<path d="M347.868 188.842H518.96C520.112 188.842 521.051 187.796 521.051 186.513V180.57H345.777V186.513C345.777 187.796 346.707 188.842 347.868 188.842Z" fill="#5A72EB"/>
<path opacity="0.2" d="M345.777 180.578H521.051V184.719H345.777V180.578Z" fill="#5A72EB"/>
<path d="M342.102 181.651H524.722C525.874 181.651 526.812 180.605 526.812 179.322C526.812 178.038 525.874 176.992 524.722 176.992H342.092C340.94 176.992 340.001 178.038 340.001 179.322C340.011 180.605 340.95 181.651 342.102 181.651Z" fill="#5A72EB"/>
<path d="M387.785 165.375H191.459C189.691 165.375 188.246 163.889 188.246 162.071V36.304C188.246 34.4861 189.691 33 191.459 33H387.785C389.553 33 390.997 34.4861 390.997 36.304V162.056C390.997 163.889 389.553 165.375 387.785 165.375Z" fill="#222222"/>
<path opacity="0.6" d="M387.785 165.375H191.459C189.691 165.375 188.246 163.889 188.246 162.071V36.304C188.246 34.4861 189.691 33 191.459 33H387.785C389.553 33 390.997 34.4861 390.997 36.304V162.056C390.997 163.889 389.553 165.375 387.785 165.375Z" fill="white"/>
<path d="M387.674 46.4453H191.586V161.637H387.674V46.4453Z" fill="#3C3838"/>
<path d="M229.775 136.961H207.975C207.439 136.961 207 137.454 207 138.057C207 138.661 207.439 139.154 207.975 139.154H229.775C230.311 139.154 230.749 138.661 230.749 138.057C230.749 137.443 230.311 136.961 229.775 136.961Z" fill="#5A72EB"/>
<path d="M229.773 143.797H210.896C210.36 143.797 209.922 144.29 209.922 144.893C209.922 145.497 210.36 145.99 210.896 145.99H229.773C230.309 145.99 230.748 145.497 230.748 144.893C230.748 144.29 230.309 143.797 229.773 143.797Z" fill="#5A72EB"/>
<path opacity="0.5" d="M229.775 150.648H207.975C207.439 150.648 207 151.142 207 151.745C207 152.348 207.439 152.842 207.975 152.842H229.775C230.311 152.842 230.749 152.348 230.749 151.745C230.749 151.142 230.311 150.648 229.775 150.648Z" fill="#5A72EB"/>
<path d="M229.777 157.469H216.748C216.212 157.469 215.773 157.962 215.773 158.565C215.773 159.168 216.212 159.662 216.748 159.662H229.777C230.313 159.662 230.752 159.168 230.752 158.565C230.752 157.962 230.313 157.469 229.777 157.469Z" fill="#5A72EB"/>
<path d="M229.775 164.32H207.975C207.439 164.32 207 164.814 207 165.417C207 166.02 207.439 166.513 207.975 166.513H229.775C230.311 166.513 230.749 166.02 230.749 165.417C230.749 164.814 230.311 164.32 229.775 164.32Z" fill="#5A72EB"/>
<path d="M229.775 171.164H211.873C211.337 171.164 210.898 171.658 210.898 172.261C210.898 172.864 211.337 173.357 211.873 173.357H229.775C230.311 173.357 230.75 172.864 230.75 172.261C230.75 171.658 230.311 171.164 229.775 171.164Z" fill="#5A72EB"/>
<path d="M229.775 178.008H211.873C211.337 178.008 210.898 178.501 210.898 179.104C210.898 179.707 211.337 180.201 211.873 180.201H229.775C230.311 180.201 230.75 179.707 230.75 179.104C230.75 178.501 230.311 178.008 229.775 178.008Z" fill="#5A72EB"/>
<path d="M229.775 184.836H209.924C209.388 184.836 208.949 185.329 208.949 185.932C208.949 186.536 209.388 187.029 209.924 187.029H229.775C230.311 187.029 230.749 186.536 230.749 185.932C230.749 185.329 230.311 184.836 229.775 184.836Z" fill="#5A72EB"/>
<path opacity="0.5" d="M229.777 191.688H216.748C216.212 191.688 215.773 192.181 215.773 192.784C215.773 193.387 216.212 193.881 216.748 193.881H229.777C230.313 193.881 230.752 193.387 230.752 192.784C230.752 192.181 230.313 191.688 229.777 191.688Z" fill="#5A72EB"/>
<path opacity="0.5" d="M229.771 130.117H213.818C213.282 130.117 212.844 130.611 212.844 131.214C212.844 131.817 213.282 132.31 213.818 132.31H229.771C230.307 132.31 230.746 131.817 230.746 131.214C230.746 130.6 230.307 130.117 229.771 130.117Z" fill="#5A72EB"/>
<path d="M229.775 123.266H207.975C207.439 123.266 207 123.759 207 124.362C207 124.965 207.439 125.459 207.975 125.459H229.775C230.311 125.459 230.749 124.965 230.749 124.362C230.749 123.748 230.311 123.266 229.775 123.266Z" fill="#5A72EB"/>
<path d="M229.775 198.531H207.975C207.439 198.531 207 199.025 207 199.628C207 200.231 207.439 200.724 207.975 200.724H229.775C230.311 200.724 230.749 200.231 230.749 199.628C230.749 199.025 230.311 198.531 229.775 198.531Z" fill="#5A72EB"/>
<path opacity="0.5" d="M241.466 136.688H237.207V139.429H241.466V136.688Z" fill="#5A72EB"/>
<path opacity="0.5" d="M241.466 143.523H237.207V146.265H241.466V143.523Z" fill="#5A72EB"/>
<path opacity="0.5" d="M241.466 150.367H237.207V153.109H241.466V150.367Z" fill="#5A72EB"/>
<path opacity="0.5" d="M241.466 157.203H237.207V159.945H241.466V157.203Z" fill="#5A72EB"/>
<path opacity="0.5" d="M241.466 164.039H237.207V166.78H241.466V164.039Z" fill="#5A72EB"/>
<path opacity="0.5" d="M241.466 170.891H237.207V173.632H241.466V170.891Z" fill="#5A72EB"/>
<path opacity="0.5" d="M241.466 177.742H237.207V180.484H241.466V177.742Z" fill="#5A72EB"/>
<path opacity="0.5" d="M241.466 184.57H237.207V187.312H241.466V184.57Z" fill="#5A72EB"/>
<path opacity="0.5" d="M241.466 191.406H237.207V194.148H241.466V191.406Z" fill="#5A72EB"/>
<path opacity="0.5" d="M241.466 129.844H237.207V132.585H241.466V129.844Z" fill="#5A72EB"/>
<path opacity="0.5" d="M241.466 123H237.207V125.741H241.466V123Z" fill="#5A72EB"/>
<path opacity="0.5" d="M241.466 198.258H237.207V200.999H241.466V198.258Z" fill="#5A72EB"/>
<path d="M263.523 138.057C263.523 138.661 263.962 139.154 264.498 139.154H335.025C335.561 139.154 335.999 138.661 335.999 138.057C335.999 137.454 335.561 136.961 335.025 136.961H264.498C263.962 136.961 263.523 137.443 263.523 138.057Z" fill="#5A72EB"/>
<path d="M335.025 143.797H296.404C295.868 143.797 295.43 144.29 295.43 144.893C295.43 145.497 295.868 145.99 296.404 145.99H335.025C335.561 145.99 335.999 145.497 335.999 144.893C335.999 144.29 335.561 143.797 335.025 143.797Z" fill="#5A72EB"/>
<path opacity="0.5" d="M287.233 143.797H275.217C274.681 143.797 274.242 144.29 274.242 144.893C274.242 145.497 274.681 145.99 275.217 145.99H287.233C287.769 145.99 288.207 145.497 288.207 144.893C288.207 144.29 287.769 143.797 287.233 143.797Z" fill="#5A72EB"/>
<path d="M311.636 150.648H258.037C257.501 150.648 257.062 151.142 257.062 151.745C257.062 152.348 257.501 152.842 258.037 152.842H311.636C312.172 152.842 312.611 152.348 312.611 151.745C312.611 151.142 312.172 150.648 311.636 150.648Z" fill="#5A72EB"/>
<path opacity="0.5" d="M246.959 152.842H250.76C251.296 152.842 251.734 152.348 251.734 151.745C251.734 151.142 251.296 150.648 250.76 150.648H246.959C246.423 150.648 245.984 151.142 245.984 151.745C245.984 152.348 246.423 152.842 246.959 152.842Z" fill="#5A72EB"/>
<path d="M318.461 158.565C318.461 157.962 318.022 157.469 317.486 157.469H267.814C267.278 157.469 266.84 157.962 266.84 158.565C266.84 159.168 267.278 159.662 267.814 159.662H317.486C318.022 159.662 318.461 159.179 318.461 158.565Z" fill="#5A72EB"/>
<path d="M246.959 159.662H260.982C261.518 159.662 261.957 159.168 261.957 158.565C261.957 157.962 261.518 157.469 260.982 157.469H246.959C246.423 157.469 245.984 157.962 245.984 158.565C245.984 159.179 246.423 159.662 246.959 159.662Z" fill="#5A72EB"/>
<path d="M246.959 166.513H299.944C300.48 166.513 300.919 166.02 300.919 165.417C300.919 164.814 300.48 164.32 299.944 164.32H246.959C246.423 164.32 245.984 164.814 245.984 165.417C245.984 166.031 246.423 166.513 246.959 166.513Z" fill="#5A72EB"/>
<path d="M281.228 171.164C280.692 171.164 280.254 171.658 280.254 172.261C280.254 172.864 280.692 173.357 281.228 173.357H308.71C309.246 173.357 309.685 172.864 309.685 172.261C309.685 171.658 309.246 171.164 308.71 171.164H281.228Z" fill="#5A72EB"/>
<path d="M246.959 173.357H270.737C271.273 173.357 271.712 172.864 271.712 172.261C271.712 171.658 271.273 171.164 270.737 171.164H246.959C246.423 171.164 245.984 171.658 245.984 172.261C245.984 172.875 246.423 173.357 246.959 173.357Z" fill="#5A72EB"/>
<path d="M335.025 178.008H270.346C269.81 178.008 269.371 178.501 269.371 179.104C269.371 179.707 269.81 180.201 270.346 180.201H335.025C335.561 180.201 336 179.707 336 179.104C336 178.501 335.561 178.008 335.025 178.008Z" fill="#5A72EB"/>
<path d="M335.02 184.836H279.111C278.575 184.836 278.137 185.329 278.137 185.932C278.137 186.536 278.575 187.029 279.111 187.029H335.02C335.556 187.029 335.995 186.536 335.995 185.932C335.995 185.329 335.556 184.836 335.02 184.836Z" fill="#5A72EB"/>
<path opacity="0.5" d="M335.025 191.688H323.525C322.989 191.688 322.551 192.181 322.551 192.784C322.551 193.387 322.989 193.881 323.525 193.881H335.025C335.561 193.881 335.999 193.387 335.999 192.784C335.999 192.181 335.561 191.688 335.025 191.688Z" fill="#5A72EB"/>
<path d="M315.484 191.688H273.268C272.732 191.688 272.293 192.181 272.293 192.784C272.293 193.387 272.732 193.881 273.268 193.881H315.484C316.02 193.881 316.459 193.387 316.459 192.784C316.459 192.181 316.02 191.688 315.484 191.688Z" fill="#5A72EB"/>
<path d="M246.959 132.31H292.148C292.684 132.31 293.122 131.817 293.122 131.214C293.122 130.611 292.684 130.117 292.148 130.117H246.959C246.423 130.117 245.984 130.611 245.984 131.214C245.984 131.817 246.423 132.31 246.959 132.31Z" fill="#5A72EB"/>
<path d="M246.959 125.459H317.486C318.022 125.459 318.46 124.965 318.46 124.362C318.46 123.759 318.022 123.266 317.486 123.266H246.959C246.423 123.266 245.984 123.759 245.984 124.362C245.984 124.965 246.423 125.459 246.959 125.459Z" fill="#5A72EB"/>
<path d="M312.611 198.531H282.674C282.138 198.531 281.699 199.025 281.699 199.628C281.699 200.231 282.138 200.724 282.674 200.724H312.602C313.138 200.724 313.576 200.231 313.576 199.628C313.586 199.025 313.147 198.531 312.611 198.531Z" fill="#5A72EB"/>
<path opacity="0.5" d="M274.187 198.531H246.959C246.423 198.531 245.984 199.025 245.984 199.628C245.984 200.231 246.423 200.724 246.959 200.724H274.187C274.723 200.724 275.162 200.231 275.162 199.628C275.162 199.025 274.723 198.531 274.187 198.531Z" fill="#5A72EB"/>
<path opacity="0.5" d="M302.174 132.31C302.71 132.31 303.149 131.817 303.149 131.214C303.149 130.611 302.71 130.117 302.174 130.117H298.666C298.13 130.117 297.691 130.611 297.691 131.214C297.691 131.817 298.13 132.31 298.666 132.31H302.174Z" fill="#5A72EB"/>
<path opacity="0.5" d="M259.461 138.057C259.461 137.454 259.022 136.961 258.486 136.961H253.779C253.243 136.961 252.805 137.454 252.805 138.057C252.805 138.661 253.243 139.154 253.779 139.154H258.486C259.022 139.154 259.461 138.661 259.461 138.057Z" fill="#5A72EB"/>
<path opacity="0.5" d="M313.198 165.417C313.198 164.814 312.76 164.32 312.224 164.32H307.068C306.532 164.32 306.094 164.814 306.094 165.417C306.094 166.02 306.532 166.513 307.068 166.513H312.224C312.76 166.513 313.198 166.031 313.198 165.417Z" fill="#5A72EB"/>
<path opacity="0.5" d="M330.065 159.662C330.601 159.662 331.04 159.168 331.04 158.565C331.04 157.962 330.601 157.469 330.065 157.469H325.885C325.349 157.469 324.91 157.962 324.91 158.565C324.91 159.168 325.349 159.662 325.885 159.662H330.065Z" fill="#5A72EB"/>
<path opacity="0.5" d="M262.506 178.008C261.97 178.008 261.531 178.501 261.531 179.104C261.531 179.707 261.97 180.201 262.506 180.201H266.706C267.242 180.201 267.681 179.707 267.681 179.104C267.681 178.501 267.242 178.008 266.706 178.008H262.506Z" fill="#5A72EB"/>
<rect x="206.5" y="66.5" width="37" height="47" stroke="white"/>
<rect x="247.5" y="66.5" width="37" height="47" stroke="white"/>
<rect x="288.5" y="66.5" width="37" height="47" stroke="white"/>
<rect x="329.5" y="66.5" width="37" height="47" stroke="white"/>
<path fill-rule="evenodd" clip-rule="evenodd" d="M226.018 113.006L224.83 112.605C224.83 112.605 224.975 106.635 222.799 106.206C221.349 104.549 223.032 35.9238 228.252 105.977C228.252 105.977 226.454 106.863 226.135 108.377C225.787 109.863 226.018 113.006 226.018 113.006Z" fill="white"/>
<path fill-rule="evenodd" clip-rule="evenodd" d="M226.018 113.006L224.83 112.605C224.83 112.605 224.975 106.635 222.799 106.206C221.349 104.549 223.032 35.9238 228.252 105.977C228.252 105.977 226.454 106.863 226.135 108.377C225.787 109.863 226.018 113.006 226.018 113.006Z" fill="#A6A385"/>
<path fill-rule="evenodd" clip-rule="evenodd" d="M226.655 107.229C226.655 107.229 237.068 100.487 234.631 86.4586C232.282 76.2596 226.742 72.9169 226.133 71.6311C225.466 70.7169 224.828 69.1172 224.828 69.1172L225.263 97.4867C225.263 97.5154 224.364 106.172 226.656 107.23" fill="white"/>
<path fill-rule="evenodd" clip-rule="evenodd" d="M226.655 107.229C226.655 107.229 237.068 100.487 234.631 86.4586C232.282 76.2596 226.742 72.9169 226.133 71.6311C225.466 70.7169 224.828 69.1172 224.828 69.1172L225.263 97.4867C225.263 97.5154 224.364 106.172 226.656 107.23" fill="#499D4A"/>
<path fill-rule="evenodd" clip-rule="evenodd" d="M224.219 107.598C224.219 107.598 214.445 101.027 215.025 89.4562C215.576 77.8854 222.479 72.2 223.813 71.1715C224.683 70.2573 224.712 69.9142 224.77 69C225.379 70.2857 225.263 88.2277 225.35 90.3417C225.611 98.484 224.886 106.055 224.219 107.598Z" fill="white"/>
<path fill-rule="evenodd" clip-rule="evenodd" d="M224.219 107.598C224.219 107.598 214.445 101.027 215.025 89.4562C215.576 77.8854 222.479 72.2 223.813 71.1715C224.683 70.2573 224.712 69.9142 224.77 69C225.379 70.2857 225.263 88.2277 225.35 90.3417C225.611 98.484 224.886 106.055 224.219 107.598Z" fill="#58AA50"/>
<path d="M256 75V102.9V103.8L276.1 103.5V99.3H260.5V91.5H271V86.7H260.5V80.4H276.1V75H256Z" fill="#F5942E"/>
<path d="M297.216 86.0781C292.849 87.2115 290 89.1531 290 91.3698C290 94.8815 297.296 97.7448 306.314 97.7448C307.54 97.7448 308.401 97.6798 309.544 97.5832" stroke="#407BFF" stroke-width="1.5" stroke-linecap="round" stroke-linejoin="round"/>
<path d="M303.08 97.5005C302.396 96.5071 301.745 95.6121 301.126 94.5004C296.569 86.3337 295.349 78.217 298.426 76.3787C300.331 75.217 303.473 76.8004 306.664 80.1354" stroke="#407BFF" stroke-width="1.5" stroke-linecap="round" stroke-linejoin="round"/>
<path d="M297.437 96.645C296.274 101.125 296.509 104.505 298.364 105.637C301.317 107.437 307.286 102.373 311.686 94.2967C312.282 93.18 312.817 92.0817 313.289 91" stroke="#407BFF" stroke-width="1.5" stroke-linecap="round" stroke-linejoin="round"/>
<path d="M306.566 101.804C309.76 105.138 312.888 106.721 314.811 105.559C317.875 103.723 316.668 95.6059 312.107 87.4375C311.471 86.3092 310.82 85.4308 310.152 84.4375" stroke="#407BFF" stroke-width="1.5" stroke-linecap="round" stroke-linejoin="round"/>
<path d="M315.813 96.1042C320.139 94.9592 323.001 93.0209 323.001 90.8109C323.001 87.2942 315.7 84.4375 306.695 84.4375C305.458 84.4375 304.598 84.4858 303.457 84.5825" stroke="#407BFF" stroke-width="1.5" stroke-linecap="round" stroke-linejoin="round"/>
<path d="M299.836 90.9997C300.308 89.8997 300.841 88.8196 301.439 87.703C305.823 79.6296 311.796 74.5529 314.766 76.3679C316.604 77.4996 316.856 80.878 315.693 85.3563" stroke="#407BFF" stroke-width="1.5" stroke-linecap="round" stroke-linejoin="round"/>
<path d="M306.908 90.9822H306.892C306.875 91.1989 306.693 91.3822 306.461 91.3822C306.35 91.3767 306.245 91.3288 306.168 91.2482C306.091 91.1677 306.048 91.0606 306.047 90.9489C306.047 90.7156 306.229 90.5322 306.444 90.5322H306.428C306.643 90.5156 306.842 90.7156 306.842 90.9322" stroke="#407BFF" stroke-width="1.5" stroke-linecap="round" stroke-linejoin="round"/>
<path d="M348.086 106C347.631 106 347.178 105.881 346.779 105.651L342.62 103.188C341.999 102.841 342.302 102.718 342.507 102.647C343.335 102.357 343.503 102.292 344.387 101.79C344.48 101.737 344.602 101.755 344.697 101.811L347.892 103.708C348.008 103.77 348.171 103.77 348.278 103.708L360.737 96.516C360.852 96.4506 360.927 96.3165 360.927 96.1792V81.8025C360.927 81.6591 360.852 81.5312 360.735 81.4595L348.281 74.2742C348.165 74.2056 348.013 74.2056 347.897 74.2742L335.446 81.4595C335.325 81.5281 335.249 81.6622 335.249 81.7994V96.1761C335.249 96.3133 335.323 96.4443 335.442 96.5098L338.854 98.4808C340.706 99.407 341.838 98.3155 341.838 97.2177V83.0281C341.838 82.8254 341.997 82.6695 342.2 82.6695H343.778C343.974 82.6695 344.137 82.8254 344.137 83.0281V97.224C344.137 99.6939 342.789 101.113 340.447 101.113C339.727 101.113 339.159 101.113 337.575 100.333L334.307 98.4496C333.499 97.9818 333 97.1086 333 96.1761V81.7994C333 80.8638 333.499 79.9906 334.307 79.5291L346.778 72.3345C347.567 71.8885 348.615 71.8885 349.398 72.3345L361.853 79.5322C362.658 79.9969 363.16 80.8669 363.16 81.8025V96.1792C363.16 97.1117 362.658 97.9818 361.853 98.4496L349.398 105.644C348.998 105.875 348.546 105.993 348.085 105.993" fill="#689F63"/>
<path d="M351.93 96.0945C346.479 96.0945 345.336 93.5921 345.336 91.4933C345.336 91.2937 345.497 91.1347 345.697 91.1347H347.306C347.484 91.1347 347.633 91.2641 347.661 91.4397C347.905 93.0794 348.628 93.9065 351.925 93.9065C354.55 93.9065 355.667 93.3133 355.667 91.9209C355.667 91.1194 355.349 90.5237 351.27 90.1245C347.858 89.7877 345.75 89.0362 345.75 86.3074C345.75 83.7938 347.87 82.2969 351.422 82.2969C355.411 82.2969 357.388 83.6815 357.638 86.6567C357.647 86.7596 357.61 86.8594 357.541 86.9342C357.473 87.0059 357.376 87.0496 357.276 87.0496H355.658C355.489 87.0496 355.343 86.9311 355.308 86.7689C354.918 85.0444 353.977 84.4924 351.416 84.4924C348.55 84.4924 348.217 85.4903 348.217 86.2388C348.217 87.1463 348.61 87.4114 352.477 87.9228C356.306 88.4311 358.124 89.1484 358.124 91.8398C358.124 94.5529 355.86 96.1091 351.912 96.1091L351.93 96.0945Z" fill="#689F63"/>
</svg>
